<?xml version="1.0" standalone="no"?>
<!DOCTYPE svg PUBLIC "-//W3C//DTD SVG 20010904//EN"
 "http://www.w3.org/TR/2001/REC-SVG-20010904/DTD/svg10.dtd">
<svg version="1.0" xmlns="http://www.w3.org/2000/svg"
 width="1004.000000pt" height="1004.000000pt" viewBox="0 0 1004.000000 1004.000000"
 preserveAspectRatio="xMidYMid meet">
<metadata>
Created by potrace 1.11, written by Peter Selinger 2001-2013
</metadata>
<g transform="translate(0.000000,1004.000000) scale(0.100000,-0.100000)"
fill="#000000" stroke="none">
<path d="M5029 9485 c-2 -2 -85 -4 -184 -6 -99 -1 -187 -6 -195 -10 -9 -4 -49
-10 -90 -12 -41 -3 -106 -10 -145 -16 -38 -7 -75 -9 -81 -7 -7 3 -14 1 -16 -5
-4 -12 -35 -19 -115 -26 -35 -3 -63 -9 -63 -13 0 -5 -19 -10 -42 -14 -85 -10
-123 -19 -128 -27 -3 -4 -22 -9 -43 -11 -20 -1 -37 -6 -37 -10 0 -4 -15 -8
-34 -8 -19 0 -36 -4 -38 -10 -1 -5 -20 -10 -40 -12 -21 -1 -38 -6 -38 -10 0
-4 -11 -8 -24 -8 -13 0 -26 -4 -28 -8 -4 -11 -137 -52 -166 -52 -13 0 -20 -4
-17 -10 3 -5 -3 -10 -14 -10 -11 0 -23 -4 -26 -10 -3 -5 -17 -10 -31 -10 -13
0 -24 -4 -24 -10 0 -5 -5 -10 -11 -10 -5 0 -29 -9 -52 -19 -23 -11 -51 -21
-62 -23 -11 -1 -22 -5 -25 -8 -12 -12 -51 -30 -65 -30 -8 0 -15 -4 -15 -10 0
-5 -6 -10 -13 -10 -18 0 -67 -24 -67 -32 0 -5 -6 -8 -13 -8 -18 0 -67 -24 -67
-32 0 -5 -9 -8 -20 -8 -11 0 -20 -4 -20 -10 0 -5 -9 -10 -20 -10 -11 0 -20 -3
-20 -8 0 -4 -15 -13 -32 -21 -18 -8 -52 -27 -75 -43 -23 -15 -46 -28 -52 -28
-6 0 -11 -4 -11 -9 0 -5 -8 -11 -17 -14 -36 -12 -225 -134 -231 -149 -2 -5 -8
-8 -14 -8 -6 0 -32 -18 -58 -40 -26 -22 -50 -40 -54 -40 -3 0 -14 -7 -23 -15
-10 -8 -47 -37 -83 -65 -36 -29 -69 -58 -73 -66 -4 -8 -12 -14 -17 -14 -6 0
-18 -8 -28 -17 -10 -10 -43 -38 -72 -63 -68 -57 -307 -296 -380 -380 -30 -34
-72 -81 -92 -104 -21 -23 -38 -44 -38 -48 0 -4 -6 -13 -14 -21 -27 -26 -116
-148 -116 -158 0 -5 -4 -9 -8 -9 -4 0 -16 -13 -25 -30 -10 -16 -23 -35 -30
-42 -7 -7 -24 -31 -38 -53 -77 -119 -99 -154 -99 -159 0 -4 -15 -28 -32 -54
-46 -67 -52 -77 -94 -162 -21 -41 -40 -77 -43 -80 -10 -8 -121 -245 -121 -256
0 -3 -7 -22 -16 -42 -89 -202 -111 -264 -178 -497 -14 -49 -32 -112 -40 -140
-8 -27 -22 -88 -31 -135 -9 -47 -20 -103 -25 -125 -5 -22 -16 -87 -24 -145 -9
-58 -18 -121 -21 -140 -30 -197 -46 -740 -25 -849 5 -25 11 -89 14 -141 2 -53
5 -100 6 -105 2 -6 1 -12 0 -15 -1 -3 -3 -46 -4 -96 -2 -72 1 -91 11 -87 7 3
14 1 14 -3 1 -5 4 -20 6 -34 3 -14 6 -54 7 -90 2 -36 7 -77 11 -93 4 -15 3
-33 -2 -40 -6 -8 -5 -28 3 -57 6 -25 12 -39 13 -32 1 6 8 12 17 12 12 0 15 -7
12 -25 -3 -13 0 -26 6 -28 8 -3 8 -11 0 -28 -8 -17 -7 -30 1 -46 7 -13 14 -20
17 -17 3 2 9 -14 12 -38 7 -45 35 -132 36 -110 1 33 50 -3 50 -38 0 -11 6 -33
14 -48 7 -15 17 -48 20 -74 5 -32 12 -48 22 -48 8 0 14 -10 14 -26 0 -15 8
-34 19 -43 10 -9 19 -25 19 -36 -1 -40 2 -54 15 -67 15 -15 47 -77 47 -91 0
-5 16 -41 35 -78 19 -38 35 -76 35 -84 0 -8 7 -15 15 -15 8 0 15 -7 15 -15 0
-19 27 -74 46 -93 8 -7 14 -22 14 -32 0 -10 6 -25 14 -32 7 -8 21 -30 31 -48
10 -19 26 -42 36 -51 11 -9 19 -26 19 -38 0 -12 4 -20 9 -17 4 3 16 -12 26
-34 10 -22 21 -40 25 -40 4 0 13 -14 20 -30 7 -17 16 -30 20 -30 4 0 13 -14
20 -30 7 -17 16 -30 20 -30 4 0 13 -14 20 -30 7 -17 16 -30 20 -30 4 0 12 -11
18 -25 13 -29 19 -37 82 -105 45 -48 61 -68 90 -110 8 -12 27 -36 42 -52 16
-17 28 -34 28 -39 0 -5 7 -9 15 -9 8 0 17 -11 21 -25 3 -14 9 -23 13 -21 3 2
17 -9 31 -25 56 -67 99 -109 110 -109 7 0 10 -7 7 -14 -4 -10 -1 -13 9 -9 7 3
14 1 14 -5 0 -11 54 -72 64 -72 11 0 71 -62 68 -71 -1 -5 7 -9 17 -9 11 0 23
-9 26 -20 3 -11 11 -20 17 -20 5 0 23 -13 38 -30 15 -16 33 -30 39 -30 6 0 16
-9 23 -20 7 -11 17 -20 21 -20 5 0 22 -13 37 -30 15 -16 32 -30 37 -30 5 0 15
-9 23 -20 8 -11 20 -20 27 -20 12 0 47 -27 89 -68 7 -6 19 -12 28 -12 8 0 18
-9 21 -20 3 -11 15 -20 26 -20 10 0 19 -4 19 -10 0 -5 7 -10 15 -10 8 0 15 -4
15 -10 0 -5 7 -10 15 -10 8 0 15 -4 15 -10 0 -5 7 -10 15 -10 8 0 15 -4 15
-10 0 -5 7 -10 15 -10 8 0 15 -4 15 -10 0 -5 9 -10 20 -10 11 0 20 -7 20 -16
0 -8 5 -12 11 -9 5 4 18 -3 28 -14 10 -12 23 -21 28 -21 15 0 63 -24 63 -32 0
-5 7 -8 15 -8 8 0 15 -4 15 -8 0 -5 16 -14 35 -22 19 -8 35 -17 35 -22 0 -4 9
-8 19 -8 11 0 21 -5 23 -10 2 -6 13 -12 26 -13 12 0 22 -4 22 -7 0 -9 79 -50
95 -50 7 0 15 -5 17 -10 2 -6 13 -12 26 -13 12 0 22 -4 22 -7 0 -6 27 -18 125
-60 11 -5 37 -14 58 -21 20 -7 37 -19 37 -26 0 -7 3 -13 8 -14 58 -4 87 -10
90 -19 2 -5 15 -10 28 -10 13 0 24 -4 24 -10 0 -5 16 -10 35 -10 19 0 35 -3
35 -8 0 -4 23 -13 52 -20 28 -6 54 -16 58 -21 3 -6 25 -11 48 -12 27 -2 42 -8
42 -16 0 -7 7 -13 15 -13 8 0 36 -7 62 -17 26 -9 67 -15 91 -14 24 1 42 -3 42
-9 0 -5 22 -10 49 -10 28 0 53 -4 56 -10 3 -5 19 -10 36 -10 16 0 29 -4 29
-10 0 -5 22 -10 49 -10 28 0 53 -5 56 -10 3 -6 22 -10 41 -10 19 0 34 -4 34
-10 0 -10 196 -17 708 -25 210 -4 312 -2 312 5 0 6 33 10 85 10 50 0 85 4 85
10 0 6 31 10 74 10 41 0 78 5 81 10 3 6 28 10 56 10 27 0 49 5 49 10 0 6 27
10 60 10 33 0 60 4 60 10 0 6 20 10 45 10 25 0 45 5 45 10 0 6 20 10 45 10 25
0 45 5 45 10 0 6 16 10 35 10 19 0 35 5 35 10 0 6 16 10 35 10 19 0 35 5 35
10 0 6 18 10 40 10 22 0 40 5 40 10 0 6 9 10 20 10 11 0 20 5 20 10 0 6 16 10
35 10 19 0 35 5 35 10 0 6 14 10 30 10 17 0 30 5 30 10 0 6 16 10 35 10 19 0
35 5 35 10 0 6 7 10 15 10 8 0 15 5 15 10 0 6 14 10 30 10 17 0 30 5 30 10 0
6 11 10 25 10 14 0 25 5 25 10 0 6 9 10 20 10 11 0 20 5 20 10 0 6 13 10 28
10 16 0 34 8 42 20 9 13 26 20 47 20 18 0 33 5 33 10 0 6 7 10 15 10 8 0 15 5
15 10 0 6 11 10 25 10 14 0 25 5 25 10 0 6 10 10 23 10 12 0 29 9 37 20 8 11
25 20 37 20 13 0 23 5 23 10 0 6 6 10 13 10 7 0 19 9 27 20 8 11 25 20 37 20
13 0 23 5 23 10 0 6 9 10 20 10 11 0 20 5 20 10 0 6 7 10 15 10 8 0 15 5 15
10 0 6 7 10 15 10 8 0 15 5 15 10 0 6 6 10 13 10 7 0 23 9 35 20 12 11 28 20
37 20 8 0 15 5 15 10 0 6 7 10 15 10 8 0 15 5 15 10 0 6 7 10 15 10 8 0 15 5
15 10 0 6 9 10 20 10 11 0 20 5 20 10 0 6 5 10 11 10 6 0 24 14 39 30 15 17
37 30 48 30 12 0 23 9 27 20 3 11 12 20 18 20 7 0 19 9 27 20 8 11 20 20 27
20 7 0 13 5 13 10 0 6 7 10 15 10 8 0 15 5 15 10 0 6 9 10 20 10 14 0 20 7 20
21 0 11 4 18 9 14 6 -3 26 10 45 30 19 19 39 35 43 35 5 0 15 9 23 20 8 11 20
20 27 20 7 0 13 5 13 10 0 6 7 10 15 10 8 0 15 9 15 20 0 11 7 20 15 20 8 0
15 5 15 10 0 6 7 10 15 10 8 0 15 4 15 8 0 13 36 52 46 52 5 0 16 9 24 20 8
11 20 20 27 20 7 0 13 4 13 9 0 6 27 37 60 71 33 34 60 65 60 71 0 5 9 9 19 9
11 0 22 9 26 20 3 11 24 38 45 60 21 22 42 49 45 60 4 11 11 20 16 20 5 0 9 7
9 16 0 9 9 18 20 21 11 3 20 9 20 13 0 4 12 22 28 39 15 16 38 44 52 61 14 17
30 36 36 43 11 13 14 20 14 37 0 6 6 10 14 10 8 0 17 8 21 19 3 10 14 29 25
41 11 13 20 32 20 42 0 11 4 16 10 13 5 -3 17 10 27 29 9 20 20 36 25 36 4 0
8 8 8 18 0 10 9 24 20 32 11 8 20 20 20 28 0 7 5 18 10 25 38 45 50 61 50 67
0 4 9 17 20 30 11 13 20 31 20 41 0 9 5 19 10 21 6 2 12 13 14 25 3 13 16 34
30 48 14 14 29 38 32 53 4 15 22 57 40 94 19 37 34 74 34 83 0 8 4 15 9 15 5
0 12 13 16 30 4 16 10 30 14 30 3 0 13 21 20 48 8 26 28 76 44 112 42 91 43
94 91 235 21 61 55 177 61 210 3 17 14 59 25 95 23 82 35 131 49 200 30 152
41 222 42 273 1 26 5 47 11 47 5 0 7 4 4 9 -3 4 2 48 11 97 25 131 23 738 -2
944 -9 80 -18 161 -19 182 0 20 -4 34 -7 32 -3 -2 -9 22 -13 54 -4 31 -10 73
-12 92 -2 19 -5 65 -7 102 -1 38 -5 68 -9 68 -9 0 -30 88 -31 128 0 19 -6 32
-14 32 -7 0 -15 12 -18 28 -4 15 -13 52 -22 82 -17 56 -21 103 -12 130 3 8 4
12 2 8 -3 -5 -16 -8 -29 -8 -21 0 -24 5 -24 35 0 20 -6 48 -14 63 -7 15 -18
48 -25 74 -6 27 -20 63 -31 80 -11 18 -20 39 -20 46 0 7 -7 20 -15 29 -9 8
-19 28 -22 44 -3 16 -11 29 -17 29 -6 0 -13 11 -14 25 -1 14 -8 38 -16 53 -7
15 -16 39 -20 55 -3 15 -10 27 -15 27 -5 0 -14 14 -21 30 -7 17 -16 30 -21 30
-5 0 -9 7 -9 15 0 24 -33 85 -46 85 -6 0 -14 10 -17 23 -10 42 -32 92 -48 107
-9 8 -31 43 -48 78 -17 35 -38 65 -46 69 -8 3 -15 12 -15 19 0 15 -8 27 -47
69 -13 13 -23 30 -23 38 0 8 -12 27 -27 44 -16 16 -35 40 -43 52 -8 13 -22 31
-30 41 -8 10 -22 28 -30 40 -8 13 -25 33 -37 46 -13 13 -23 28 -23 34 0 15
-25 40 -40 40 -6 0 -13 14 -16 30 -5 21 -12 30 -25 30 -11 0 -19 4 -19 9 0 5
-18 28 -40 51 -22 23 -40 46 -40 51 0 5 -6 9 -14 9 -8 0 -18 10 -22 23 -7 25
-38 57 -54 57 -5 0 -10 4 -10 9 0 13 -76 91 -89 91 -6 0 -11 4 -11 8 0 16 -37
52 -54 52 -9 0 -16 4 -16 9 0 16 -58 71 -74 71 -9 0 -16 8 -16 20 0 13 -7 20
-18 20 -10 0 -24 9 -32 20 -8 11 -20 20 -27 20 -7 0 -13 4 -13 8 0 15 -37 52
-51 52 -8 0 -21 9 -29 20 -8 11 -19 20 -25 20 -6 0 -17 9 -25 20 -8 11 -20 20
-27 20 -7 0 -13 5 -13 10 0 6 -6 10 -13 10 -7 0 -19 9 -27 20 -8 11 -20 20
-27 20 -7 0 -13 5 -13 10 0 6 -7 10 -15 10 -8 0 -15 5 -15 10 0 6 -7 10 -15
10 -8 0 -15 5 -15 10 0 6 -7 10 -15 10 -8 0 -15 5 -15 10 0 6 -9 10 -19 10
-11 0 -23 9 -26 20 -4 13 -15 20 -30 20 -15 0 -26 7 -30 20 -3 11 -15 20 -26
20 -10 0 -19 5 -19 10 0 6 -7 10 -15 10 -8 0 -15 5 -15 10 0 6 -7 10 -15 10
-8 0 -15 5 -15 10 0 6 -9 10 -20 10 -11 0 -20 5 -20 10 0 6 -7 10 -15 10 -8 0
-15 5 -15 10 0 6 -9 10 -20 10 -11 0 -20 5 -20 10 0 6 -11 10 -24 10 -16 0
-27 7 -31 20 -4 13 -15 20 -31 20 -13 0 -24 5 -24 10 0 6 -9 10 -20 10 -11 0
-20 5 -20 10 0 6 -11 10 -24 10 -16 0 -27 7 -31 20 -4 14 -15 20 -36 20 -16 0
-29 5 -29 10 0 6 -7 10 -15 10 -8 0 -15 5 -15 10 0 6 -15 10 -34 10 -26 0 -36
5 -41 20 -5 15 -15 20 -41 20 -19 0 -34 5 -34 10 0 6 -15 10 -34 10 -26 0 -36
5 -41 20 -5 15 -15 20 -41 20 -19 0 -34 5 -34 10 0 6 -9 10 -20 10 -11 0 -20
5 -20 10 0 6 -11 10 -25 10 -14 0 -25 5 -25 10 0 6 -11 10 -25 10 -14 0 -25 5
-25 10 0 6 -22 10 -50 10 -27 0 -50 5 -50 10 0 6 -11 10 -25 10 -14 0 -25 5
-25 10 0 6 -7 10 -15 10 -8 0 -15 5 -15 10 0 6 -11 10 -25 10 -14 0 -25 5 -25
10 0 6 -25 10 -55 10 -30 0 -55 5 -55 10 0 6 -20 10 -45 10 -37 0 -45 3 -45
19 0 20 2 19 -135 41 -38 6 -72 15 -75 19 -8 13 -87 23 -214 27 -69 2 -125 9
-133 16 -9 7 -87 12 -237 14 -123 2 -225 1 -227 -1z"/>
<path d="M5855 9460 c-3 -5 3 -10 14 -10 12 0 21 5 21 10 0 6 -6 10 -14 10 -8
0 -18 -4 -21 -10z"/>
<path d="M6828 9193 c7 -3 16 -2 19 1 4 3 -2 6 -13 5 -11 0 -14 -3 -6 -6z"/>
<path d="M9370 6220 c0 -5 5 -10 11 -10 5 0 7 5 4 10 -3 6 -8 10 -11 10 -2 0
-4 -4 -4 -10z"/>
<path d="M790 3480 c0 -16 5 -30 10 -30 6 0 10 14 10 30 0 17 -4 30 -10 30 -5
0 -10 -13 -10 -30z"/>
</g>
</svg>
